<svg width="65" height="65" viewBox="0 0 65 65" fill="none" xmlns="http://www.w3.org/2000/svg">
<circle cx="32.5" cy="32.5" r="32.5" fill="#BCCCDC"/>
<g clip-path="url(#clip0_10_122)">
<path fill-rule="evenodd" clip-rule="evenodd" d="M32.5 8C18.974 8 8 18.974 8 32.5C8 46.026 18.974 57 32.5 57C45.9995 57 57 46.026 57 32.5C57 18.974 45.9995 8 32.5 8ZM48.6823 19.2925C51.6988 22.9661 53.368 27.561 53.4128 32.3142C52.7227 32.1815 45.8137 30.7728 38.8516 31.6507C38.6903 31.3036 38.5576 30.932 38.3984 30.5604C37.9654 29.5384 37.5052 28.5281 37.0182 27.5306C44.7235 24.3946 48.231 19.8784 48.6823 19.2925ZM32.5 11.6158C37.8145 11.6158 42.6777 13.6064 46.3711 16.8751C45.9995 17.406 42.837 21.6322 35.3971 24.4211C31.9671 18.1246 28.1696 12.9674 27.5837 12.1711C29.1952 11.7948 30.8451 11.6078 32.5 11.6138V11.6158ZM23.5983 13.5799C24.1557 14.3251 27.8756 19.5068 31.3567 25.6706C21.5771 28.2758 12.9408 28.2227 12.0119 28.2227C13.3675 21.7384 17.753 16.3443 23.5983 13.5799ZM11.5607 32.5265V31.8895C12.4651 31.9161 22.6143 32.0488 33.0594 28.9128C33.6699 30.0827 34.2273 31.277 34.7581 32.4735C34.4927 32.5531 34.2007 32.6327 33.9353 32.7123C23.1471 36.1934 17.406 45.7055 16.9282 46.5038C13.4725 42.6685 11.5603 37.689 11.5607 32.5265ZM32.5 53.4393C27.6633 53.4393 23.2002 51.7917 19.6661 49.0293C20.0377 48.2576 24.2884 40.0725 36.0872 35.9545C36.1403 35.928 36.1689 35.928 36.2199 35.9014C39.1701 43.527 40.3645 49.9318 40.685 51.7652C38.1595 52.8554 35.3971 53.4393 32.5 53.4393ZM44.1661 49.8521C43.9538 48.5761 42.837 42.4654 40.0991 34.9439C46.663 33.9088 52.4022 35.6095 53.1208 35.8483C52.2164 41.6671 48.868 46.6896 44.1661 49.8521Z" fill="#003E6B"/>
</g>
<defs>
<clipPath id="clip0_10_122">
<rect width="49" height="49" fill="white" transform="translate(8 8)"/>
</clipPath>
</defs>
</svg>
